<?xml version="1.0" encoding="utf-8"?><svg viewBox="0 0 32 32" xmlns="http://www.w3.org/2000/svg" xmlns:xlink="http://www.w3.org/1999/xlink"><style>:root>svg{display:none}:root>svg:target{display:block}</style><svg viewBox="0 0 32 32" id="arrow" xmlns="http://www.w3.org/2000/svg"><g clip-path="url(#ba)" stroke-width="2"><circle cx="16" cy="16" r="15"/><path d="m14 11 5 5-5 5"/></g><defs><clipPath id="ba"><path d="M0 0h32v32H0z"/></clipPath></defs></svg><svg viewBox="0 0 22 22" id="arrow-mobile" xmlns="http://www.w3.org/2000/svg"><g clip-path="url(#aa)" stroke-width="2"><path d="M9.625 7.563 13.063 11l-3.438 3.438"/><circle cx="11" cy="11" r="10"/></g><defs><clipPath id="aa"><path d="M0 0h22v22H0z"/></clipPath></defs></svg><svg viewBox="0 0 30 28" id="cart" xmlns="http://www.w3.org/2000/svg"><path d="M28.816 19.85H8.902l1-2.114 16.613-.03c.562 0 1.044-.417 1.144-.994l2.3-13.366a1.24 1.24 0 0 0-.25-.986 1.177 1.177 0 0 0-.399-.318 1.135 1.135 0 0 0-.49-.116L7.684 1.853l-.18-.881C7.39.41 6.901 0 6.346 0H1.18C.867 0 .567.13.346.359A1.25 1.25 0 0 0 0 1.225c0 .325.124.637.346.867.221.23.521.358.834.358h4.21l.79 3.895 1.943 9.764-2.502 4.238a1.253 1.253 0 0 0-.1 1.277c.2.413.605.673 1.054.673h2.1a3.645 3.645 0 0 0-.69 2.142c0 1.964 1.539 3.561 3.432 3.561s3.43-1.597 3.43-3.561c0-.774-.247-1.527-.688-2.142h5.387a3.645 3.645 0 0 0-.689 2.142c0 1.964 1.539 3.561 3.431 3.561 1.893 0 3.431-1.597 3.431-3.561 0-.774-.247-1.527-.688-2.142h3.789c.648 0 1.18-.548 1.18-1.225a1.253 1.253 0 0 0-.35-.864 1.163 1.163 0 0 0-.834-.358ZM8.176 4.27l19.256.065-1.886 10.961-15.126.028L8.176 4.27Zm3.24 21.266c-.581 0-1.056-.493-1.056-1.097s.475-1.097 1.057-1.097 1.056.493 1.056 1.097c0 .29-.11.57-.309.775a1.037 1.037 0 0 1-.747.322Zm10.872 0c-.581 0-1.056-.493-1.056-1.097s.475-1.097 1.056-1.097c.582 0 1.057.493 1.057 1.097 0 .29-.111.57-.31.775a1.038 1.038 0 0 1-.747.322Z"/></svg><svg viewBox="0 0 26 28" id="login" xmlns="http://www.w3.org/2000/svg"><path d="M24.98 22.85a13.17 13.17 0 0 0-2.787-4.203 12.977 12.977 0 0 0-4.131-2.835l-.042-.018a8.752 8.752 0 0 0 3.554-7.07C21.574 3.904 17.737 0 13 0S4.426 3.905 4.426 8.724c0 2.909 1.4 5.487 3.554 7.073-.014.008-.028.011-.042.018a12.864 12.864 0 0 0-4.131 2.835 13.227 13.227 0 0 0-2.787 4.204A13.269 13.269 0 0 0 0 27.712a.286.286 0 0 0 .079.203.276.276 0 0 0 .198.085H2.35a.278.278 0 0 0 .277-.274 10.576 10.576 0 0 1 3.035-7.187c1.96-1.994 4.564-3.092 7.337-3.092 2.773 0 5.376 1.098 7.337 3.092a10.576 10.576 0 0 1 3.035 7.187.276.276 0 0 0 .277.274h2.074a.273.273 0 0 0 .198-.085.282.282 0 0 0 .079-.203 13.302 13.302 0 0 0-1.02-4.862ZM13 14.774c-1.587 0-3.08-.63-4.204-1.773a6.064 6.064 0 0 1-1.743-4.277c0-1.615.62-3.135 1.743-4.278A5.857 5.857 0 0 1 13 2.673c1.587 0 3.08.63 4.204 1.773a6.064 6.064 0 0 1 1.743 4.278A6.064 6.064 0 0 1 17.204 13 5.857 5.857 0 0 1 13 14.774Z"/></svg><svg viewBox="0 0 30 30" id="ok" xmlns="http://www.w3.org/2000/svg"><path d="M12.853 9.99a2.24 2.24 0 1 0 4.478 0 2.24 2.24 0 0 0-4.478 0Z"/><path fill-rule="evenodd" clip-rule="evenodd" d="M15 30c8.284 0 15-6.716 15-15 0-8.284-6.716-15-15-15C6.716 0 0 6.716 0 15c0 8.284 6.716 15 15 15ZM9.675 9.99a5.417 5.417 0 1 1 10.834 0 5.417 5.417 0 0 1-10.834 0Zm10.866 8.204c-.069.055-1.368 1.082-3.537 1.524l3.274 3.244a1.473 1.473 0 1 1-2.082 2.085l-3.178-3.095-2.886 3.075c-.29.3-.675.45-1.06.45a1.473 1.473 0 0 1-1.06-2.495l3.107-3.247c-2.23-.431-3.583-1.485-3.653-1.541a1.473 1.473 0 0 1 1.843-2.298c.014.01 1.429 1.074 3.71 1.075 2.28-.001 3.666-1.064 3.68-1.075a1.473 1.473 0 0 1 1.842 2.298Z"/></svg><svg viewBox="0 0 18 18" id="phone" xmlns="http://www.w3.org/2000/svg"><path d="M16.343 12.098a10.49 10.49 0 0 1-3.236-.513.896.896 0 0 0-.926.22l-1.44 1.806c-2.593-1.238-5.023-3.575-6.315-6.261l1.787-1.522a.935.935 0 0 0 .22-.935 10.223 10.223 0 0 1-.513-3.236.916.916 0 0 0-.907-.907H1.84C1.346.75.75.97.75 1.657c0 8.516 7.086 15.593 15.593 15.593.65 0 .907-.578.907-1.082v-3.162a.916.916 0 0 0-.907-.908Z"/></svg><svg viewBox="0 0 20 20" id="search" xmlns="http://www.w3.org/2000/svg"><path d="m17.819 16.063-3.212-2.747a6.968 6.968 0 0 0 1.456-4.285c0-1.88-.734-3.642-2.06-4.97A6.98 6.98 0 0 0 9.03 2a6.99 6.99 0 0 0-4.97 2.06A6.975 6.975 0 0 0 2 9.031c0 1.878.734 3.645 2.06 4.971a6.975 6.975 0 0 0 4.971 2.06 6.97 6.97 0 0 0 4.282-1.453l3.212 2.745a.193.193 0 0 0 .272 0l1.022-1.02a.195.195 0 0 0 .056-.136.193.193 0 0 0-.056-.136Zm-5.075-3.32a5.222 5.222 0 0 1-3.713 1.538 5.222 5.222 0 0 1-3.712-1.537A5.222 5.222 0 0 1 3.78 9.03c0-1.401.546-2.72 1.538-3.712A5.222 5.222 0 0 1 9.03 3.78c1.402 0 2.721.544 3.713 1.538A5.222 5.222 0 0 1 14.28 9.03a5.218 5.218 0 0 1-1.537 3.713Z"/></svg><svg viewBox="0 0 16 15" id="star" xmlns="http://www.w3.org/2000/svg"><path d="m15.483 5.282-4.797-.684L8.542.33a.612.612 0 0 0-1.084 0L5.314 4.598l-4.797.684a.607.607 0 0 0-.345.172.589.589 0 0 0 .01.84l3.471 3.322-.82 4.69a.583.583 0 0 0 .24.58.61.61 0 0 0 .637.045L8 12.717l4.29 2.214a.61.61 0 0 0 .384.06.594.594 0 0 0 .493-.685l-.82-4.69 3.47-3.321a.593.593 0 0 0-.334-1.013Z"/></svg><svg viewBox="0 0 30 30" id="vk" xmlns="http://www.w3.org/2000/svg"><path d="M15 0C6.716 0 0 6.716 0 15c0 8.284 6.716 15 15 15 8.284 0 15-6.716 15-15 0-8.284-6.716-15-15-15Zm7.609 16.622c.699.683 1.439 1.326 2.066 2.08.278.333.54.677.74 1.065.285.553.027 1.159-.467 1.192l-3.073-.001c-.794.066-1.426-.255-1.958-.797-.425-.433-.82-.894-1.229-1.342a2.871 2.871 0 0 0-.553-.492c-.42-.272-.783-.189-1.023.249-.245.445-.3.939-.324 1.434-.033.725-.252.914-.979.948-1.554.073-3.028-.163-4.398-.946-1.208-.69-2.144-1.666-2.959-2.77-1.587-2.152-2.803-4.514-3.895-6.944-.246-.547-.066-.84.538-.85a85.522 85.522 0 0 1 3.009-.002c.408.007.678.24.835.625.542 1.334 1.206 2.603 2.039 3.78.222.313.448.625.77.846.357.245.628.164.796-.233.107-.253.154-.523.177-.794.08-.927.09-1.854-.049-2.777-.086-.578-.41-.951-.987-1.06-.293-.056-.25-.165-.108-.332.248-.29.48-.47.944-.47h3.472c.547.107.67.353.744.904l.003 3.859c-.006.213.107.845.49.985.307.101.51-.145.693-.34.833-.883 1.426-1.926 1.957-3.005.235-.476.437-.969.634-1.462.146-.365.373-.545.785-.539l3.343.004c.099 0 .199.001.296.018.564.097.718.339.544.889-.275.863-.808 1.583-1.329 2.304-.558.772-1.154 1.517-1.707 2.293-.508.709-.468 1.066.163 1.681Z"/></svg></svg>